<?xml version="1.0" encoding="UTF-8"?>
<svg id="Layer_1" xmlns="http://www.w3.org/2000/svg" version="1.1" xmlns:xlink="http://www.w3.org/1999/xlink" viewBox="0 0 77.42 77.42">
  <!-- Generator: Adobe Illustrator 30.4.0, SVG Export Plug-In . SVG Version: 2.1.4 Build 226)  -->
  <defs>
    <style>
      .st0 {
        fill: #cf9f78;
        opacity: .55;
      }

      .st0, .st1, .st2, .st3, .st4, .st5, .st6, .st7, .st8, .st9, .st10, .st11, .st12, .st13, .st14, .st15, .st16, .st17, .st18, .st19, .st20, .st21, .st22, .st23, .st24, .st25 {
        isolation: isolate;
      }

      .st1 {
        fill: #c9926a;
        opacity: .91;
      }

      .st2 {
        fill: #d3a780;
        opacity: .55;
      }

      .st3 {
        opacity: .15;
      }

      .st3, .st23 {
        fill: #debc96;
      }

      .st4 {
        fill: #d1a37b;
        opacity: .5;
      }

      .st5 {
        fill: #e1c39d;
        opacity: .05;
      }

      .st6 {
        fill: #d4aa83;
        opacity: .4;
      }

      .st26 {
        opacity: .12;
      }

      .st7 {
        fill: #d1a27b;
        opacity: .64;
      }

      .st8 {
        fill: #d8b18b;
      }

      .st8, .st27 {
        opacity: .3;
      }

      .st9 {
        fill: #dcb992;
        opacity: .2;
      }

      .st10 {
        fill: #d3a67f;
        opacity: .45;
      }

      .st11 {
        fill: #c89169;
        opacity: .75;
      }

      .st12 {
        opacity: .82;
      }

      .st12, .st17 {
        fill: #cb9870;
      }

      .st28 {
        fill: url(#radial-gradient);
      }

      .st29 {
        fill: url(#radial-gradient1);
      }

      .st30 {
        fill: #af7d5b;
      }

      .st13 {
        opacity: .8;
      }

      .st13, .st31 {
        fill: #c68d65;
      }

      .st14 {
        fill: #cd9c74;
        opacity: .6;
      }

      .st15 {
        fill: #d8b28b;
        opacity: .36;
      }

      .st32 {
        fill: url(#radial-gradient2);
      }

      .st16 {
        fill: #dab58e;
        opacity: .25;
      }

      .st17 {
        opacity: .65;
      }

      .st18 {
        fill: #dbb791;
        opacity: .27;
      }

      .st33, .st22 {
        opacity: .7;
      }

      .st19 {
        fill: #d6ad86;
        opacity: .46;
      }

      .st20 {
        fill: #e0c29c;
        opacity: .09;
      }

      .st21 {
        fill: #ce9d75;
        opacity: .73;
      }

      .st22 {
        fill: #ca946d;
      }

      .st23 {
        opacity: .18;
      }

      .st24 {
        fill: #dfc09a;
        opacity: .1;
      }

      .st25 {
        fill: #d6ae87;
        opacity: .35;
      }
    </style>
    <radialGradient id="radial-gradient" cx="-1556.83" cy="1367.21" fx="-1556.83" fy="1367.21" r="12.78" gradientTransform="translate(-1934.9741 -667.1042) rotate(157.2647) scale(1.0003 -1.0342) skewX(.0986)" gradientUnits="userSpaceOnUse">
      <stop offset="0" stop-color="#f9e5c8"/>
      <stop offset="0" stop-color="#daae88"/>
      <stop offset=".33" stop-color="#d7a983"/>
      <stop offset=".73" stop-color="#ce9a73"/>
      <stop offset="1" stop-color="#c68d65"/>
    </radialGradient>
    <radialGradient id="radial-gradient1" cx="-1756.51" cy="1816.78" fx="-1756.51" fy="1816.78" r="14.14" gradientTransform="translate(-1800.9629 -654.8277) rotate(173.3966) scale(1 -.4878) skewX(.0113)" gradientUnits="userSpaceOnUse">
      <stop offset="0" stop-color="#e3c7a1"/>
      <stop offset="1" stop-color="#c68d65"/>
    </radialGradient>
    <radialGradient id="radial-gradient2" cx="69.69" cy="10.54" fx="69.69" fy="10.54" r="23.49" gradientTransform="translate(-16.39 41.28) rotate(1.93) scale(1 -.81)" gradientUnits="userSpaceOnUse">
      <stop offset="0" stop-color="#e3c7a1"/>
      <stop offset=".63" stop-color="#daae88"/>
      <stop offset=".75" stop-color="#d7a983"/>
      <stop offset=".9" stop-color="#ce9a73"/>
      <stop offset="1" stop-color="#c68d65"/>
    </radialGradient>
  </defs>
  <path class="st30" d="M55.31,28.21l3.96-2.5c1.16-.73.48-2.52-.87-2.31l-5.89.93c-2.33.37-3.84,2.66-3.25,4.95l2.04,5.98c.39,1.15,1.36,2.01,2.55,2.25l6.22,1.31.12-1.59c0-1.57-1.56-3.61-3.64-3.92h-.03l-1.19-5.1Z"/>
  <path class="st31" d="M52.52,28.87l6.52-4.11c.58-.37.24-1.27-.43-1.16l-8.89,1.39c-2.33.37-3.84,2.66-3.25,4.95l2.04,5.98c.39,1.15,1.36,2.01,2.55,2.26l6.22,1.31.12-1.59c0-1.57-1.56-3.61-3.64-3.92h-.03l-1.19-5.1Z"/>
  <path class="st28" d="M49.46,29.29l9.75-6.16-12.74,2.01c-2.5.39-4.11,2.86-3.48,5.31l2.18,6.41c.42,1.23,1.45,2.15,2.73,2.42l6.65,1.4.12-1.7c0-1.69-1.67-3.88-3.9-4.2h-.03l-1.28-5.47Z"/>
  <path class="st29" d="M49.46,29.29l9.75-6.16-12.74,2.01c-2.5.39-4.11,2.86-3.48,5.31l6.48-1.15Z"/>
  <path class="st32" d="M75.04,36.75c-3.08-2.86-8.42-8.85-11.01-11.74-1.72-1.92-4.58-2.36-6.97-1.38l-23.2,9.49c-.47.19-.7.71-.55,1.18.49,1.49,1.51,2.08,3.26,2.18.6.04,1.22-.02,1.81-.14,1.13-.22,13.28-3.91,14.73-4.68,0,0,1.97,1.03,3.23,1.01l-1.03,3.4c-.35,1.14-1.21,2.05-2.33,2.44-3.29,1.13-8.65.64-11.8,1.74-1.81.64-3.53,2.25-3.02,4.1.25.88,1.06,1.48,1.97,1.46,7.11-.24,13.97-.38,17.92.67h0c.41.28,3,1.44,5.17,2.39,2.03.89,4.22,1.34,6.43,1.34h2.61c2.21,0,4-1.79,4-4v-6.58c0-1.08-.42-2.13-1.21-2.87Z"/>
  <g class="st33">
    <path class="st5" d="M57.1,28.78c-.74.01-2.03-.4-2.91-.71-.7-.23-1.25-.43-1.3-.41-.57.29-2.44.93-4.65,1.64-.95.31-1.97.63-2.97.94-1.01.31-1.99.61-2.84.87-.5.15-.99.28-1.44.41-1.56.42-2.69.68-3.02.65-.27.07-.59.13-.91.18-.43.06-.88.07-1.17.11-.1.01-1.78.77-1.49.86.63.2,1.27.07,2.17.11.58.03,1.19-.03,1.8-.16.57-.12,3.36-.93,6.36-1.86.28-.09.56-.17.84-.26,3.34-1.04,6.72-2.15,7.44-2.53,0,0,2.39,1.1,3.68,1.08l.42-.92Z"/>
    <path class="st24" d="M57.07,28.97c-.78.01-2.13-.44-2.95-.73-.67-.21-1.22-.38-1.32-.34-.63.3-2.52.95-4.74,1.66-.98.31-2.01.64-3.02.95-1.06.33-2.07.64-2.89.88-.51.15-1,.28-1.47.39-1.57.38-2.67.57-3.01.46-.28.09-.58.17-.87.24-.39.09-.79.17-1.04.2-.05.06-1.57.76-1.23.86.63.18,1.27.06,2.14.1.55.02,1.16-.04,1.78-.17.63-.13,3.37-.94,6.31-1.85.28-.08.56-.17.83-.26,3.33-1.04,6.67-2.14,7.39-2.52,0,0,2.36,1.09,3.65,1.08l.41-.93Z"/>
    <path class="st3" d="M57.04,29.17c-.81.01-2.23-.48-2.99-.75-.64-.18-1.2-.32-1.34-.27-.69.32-2.6.97-4.82,1.68-1,.32-2.05.65-3.06.96-1.11.34-2.15.66-2.93.88-.52.15-1.02.27-1.49.37-1.57.34-2.65.46-3.01.26-.3.11-.57.21-.84.3-.35.12-.69.24-.91.28,0,.09-1.36.75-.97.85.63.16,1.27.05,2.12.08.53.02,1.13-.05,1.76-.19.69-.15,3.38-.95,6.27-1.84.27-.08.55-.17.83-.26,3.31-1.03,6.63-2.12,7.35-2.5,0,0,2.33,1.09,3.62,1.07l.41-.93Z"/>
    <path class="st9" d="M57.01,29.36c-.85.01-2.33-.53-3.03-.77-.61-.16-1.17-.27-1.36-.2-.75.33-2.69.99-4.9,1.7-1.02.33-2.09.66-3.11.98-1.17.36-2.23.68-2.98.89-.52.15-1.03.26-1.52.35-1.58.31-2.63.35-3,.07-.31.13-.57.25-.8.36-.32.15-.61.3-.77.36.04.12-1.15.75-.71.85.63.15,1.26.04,2.1.06.5.01,1.1-.06,1.74-.21.74-.17,3.4-.95,6.22-1.83.27-.08.55-.17.82-.25,3.29-1.03,6.59-2.11,7.3-2.49,0,0,2.3,1.08,3.59,1.07l.4-.93Z"/>
    <path class="st16" d="M56.98,29.55c-.88.01-2.43-.57-3.07-.79-.58-.13-1.14-.22-1.38-.14-.81.35-2.77,1.01-4.98,1.72-1.04.33-2.13.67-3.16.99-1.22.37-2.31.7-3.03.9-.53.14-1.05.25-1.54.33-1.58.27-2.61.24-2.99-.13-.33.15-.56.3-.76.42-.29.18-.52.36-.64.45.08.15-.94.74-.45.85.63.14,1.26.03,2.07.05.48,0,1.07-.07,1.73-.22.8-.19,3.41-.96,6.18-1.82.27-.08.54-.17.82-.25,3.28-1.02,6.54-2.1,7.25-2.48,0,0,2.27,1.08,3.56,1.06l.39-.94Z"/>
    <path class="st8" d="M56.95,29.75c-.92.01-2.53-.61-3.11-.81-.55-.11-1.11-.17-1.4-.06-.87.36-2.85,1.03-5.07,1.73-1.07.34-2.17.68-3.21,1-1.27.39-2.39.73-3.07.91-.53.14-1.06.24-1.57.32-1.59.23-2.59.13-2.98-.32-.34.17-.56.34-.73.48-.25.21-.43.42-.5.53.13.19-.73.74-.19.84.62.12,1.25,0,2.05.03.45.01,1.05-.08,1.71-.24.85-.21,3.42-.97,6.14-1.81.27-.08.54-.17.81-.25,3.26-1.02,6.5-2.08,7.2-2.46,0,0,2.24,1.07,3.53,1.06l.38-.94Z"/>
    <path class="st25" d="M56.92,29.94c-.95.02-2.63-.65-3.15-.84-.52-.08-1.08-.12-1.42,0-.93.38-2.94,1.05-5.15,1.75-1.09.34-2.21.69-3.26,1.01-1.33.4-2.47.75-3.12.92-.54.14-1.08.24-1.59.3-1.6.2-2.57.02-2.97-.52-.36.19-.55.39-.69.54-.22.25-.34.48-.37.62.17.22-.52.73.07.84.62.11,1.25,0,2.03.01.43.01,1.02-.09,1.7-.26.91-.22,3.43-.98,6.09-1.8.27-.08.54-.17.81-.25,3.25-1.01,6.45-2.07,7.16-2.44,0,0,2.21,1.07,3.5,1.05l.37-.95Z"/>
    <path class="st6" d="M56.88,30.14c-.98.02-2.73-.69-3.19-.86-.49-.06-1.05-.06-1.44.07-.99.4-3.02,1.07-5.23,1.77-1.11.35-2.25.7-3.31,1.03-1.38.42-2.55.77-3.17.93-.54.14-1.09.23-1.61.28-1.6.16-2.55-.08-2.96-.72-.37.21-.55.44-.65.6-.18.29-.25.54-.23.7.22.25-.31.73.33.84.62.1,1.25.01,2,0,.4,0,.99-.1,1.68-.28.96-.24,3.44-.99,6.05-1.79.27-.08.53-.17.8-.25,3.23-1.01,6.41-2.06,7.11-2.43,0,0,2.18,1.06,3.47,1.05l.36-.95Z"/>
    <path class="st10" d="M56.85,30.33c-1.02.02-2.83-.74-3.24-.88-.46-.04-1.02-.01-1.46.14-1.05.41-3.11,1.09-5.31,1.79-1.13.36-2.29.72-3.36,1.04-1.43.43-2.63.79-3.21.94-.55.14-1.11.22-1.64.26-1.61.13-2.52-.19-2.95-.91-.39.23-.54.49-.62.67-.15.33-.16.6-.1.78.26.28-.1.73.59.83.62.09,1.24,0,1.98-.02.38-.01.96-.11,1.66-.29,1.02-.26,3.46-.99,6.01-1.78.26-.08.53-.16.79-.25,3.21-1,6.37-2.05,7.06-2.42,0,0,2.15,1.06,3.44,1.04l.36-.95Z"/>
    <path class="st4" d="M56.82,30.53c-1.05.02-2.93-.78-3.28-.9-.43-.01-.99.04-1.48.21-1.11.43-3.19,1.11-5.4,1.81-1.16.36-2.33.73-3.41,1.05-1.48.45-2.71.81-3.26.95-.56.14-1.12.21-1.66.25-1.61.1-2.5-.3-2.95-1.1-.4.25-.53.54-.58.73-.11.37-.1.68.04.87.26.36.11.73.85.83.62.08,1.24,0,1.95-.04.35-.02.93-.12,1.64-.31,1.08-.28,3.47-1,5.96-1.77.26-.08.52-.16.79-.25,3.2-1,6.32-2.03,7.02-2.4,0,0,2.12,1.05,3.41,1.04l.35-.96Z"/>
    <path class="st0" d="M56.79,30.72c-1.09.02-3.03-.82-3.32-.92-.4.01-.97.09-1.5.28-1.17.44-3.27,1.13-5.48,1.83-1.18.37-2.37.74-3.46,1.07-1.54.46-2.79.83-3.31.95-.56.13-1.13.21-1.69.23-1.62.06-2.48-.41-2.94-1.3-.41.27-.52.59-.55.79-.06.41,0,.75.17.95.31.38.32.73,1.11.83.61.08,1.24,0,1.93-.05.33-.02.9-.13,1.63-.33,1.13-.3,3.48-1.01,5.92-1.76.26-.08.52-.16.78-.24,3.18-1,6.28-2.02,6.97-2.39,0,0,2.09,1.05,3.38,1.03l.34-.96Z"/>
    <path class="st14" d="M56.76,30.92c-1.12.02-3.13-.86-3.36-.94-.37.04-.94.15-1.52.35-1.23.46-3.36,1.15-5.56,1.85-1.2.38-2.41.75-3.51,1.08-1.59.48-2.87.85-3.36.96-.57.13-1.15.2-1.71.21-1.62.03-2.46-.52-2.93-1.5-.43.29-.51.64-.51.85,0,.45.1.8.3,1.03.37.41.52.73,1.38.83.61.07,1.23-.01,1.91-.07.3-.03.88-.15,1.61-.34,1.18-.32,3.5-1.01,5.87-1.75.26-.08.52-.16.78-.24,3.16-.99,6.24-2.01,6.92-2.37,0,0,2.06,1.04,3.35,1.03l.33-.96Z"/>
    <path class="st17" d="M56.73,31.11c-1.16.02-3.23-.9-3.4-.96-.34.06-.91.2-1.54.42-1.29.47-3.44,1.17-5.64,1.86-1.22.38-2.45.76-3.56,1.09-1.64.49-2.95.87-3.4.97-.57.13-1.16.19-1.74.19-1.63,0-2.44-.63-2.92-1.69-.44.31-.49.69-.47.91.04.49.19.86.44,1.12.42.43.73.74,1.63.82.61.06,1.23-.02,1.88-.09.28-.03.85-.16,1.6-.36,1.24-.34,3.51-1.02,5.83-1.74.26-.08.51-.16.77-.24,3.15-.99,6.19-1.99,6.88-2.36,0,0,2.02,1.04,3.32,1.02l.32-.97Z"/>
    <path class="st22" d="M56.7,31.31c-1.19.02-3.33-.94-3.44-.99-.31.08-.88.25-1.56.49-1.35.49-3.52,1.19-5.73,1.88-1.25.39-2.5.77-3.61,1.1-1.7.51-3.03.89-3.45.98-.58.12-1.18.19-1.76.17-1.64-.03-2.42-.74-2.91-1.89-.46.33-.48.73-.44.97.09.52.28.92.57,1.2.47.46.94.74,1.89.82.61.05,1.22-.02,1.86-.1.25-.03.82-.17,1.58-.38,1.3-.36,3.52-1.03,5.79-1.74.26-.08.51-.16.77-.24,3.13-.98,6.15-1.98,6.83-2.34,0,0,2,1.03,3.29,1.02l.32-.97Z"/>
    <path class="st11" d="M56.67,31.5c-1.23.02-3.42-.99-3.48-1.01-.28.11-.85.3-1.58.56-1.41.5-3.61,1.22-5.81,1.9-1.27.4-2.54.78-3.65,1.12-1.75.52-3.11.91-3.49.99-.59.12-1.19.18-1.79.16-1.64-.07-2.39-.85-2.9-2.08-.47.35-.47.78-.4,1.03.14.56.38.98.71,1.29.52.48,1.15.74,2.15.82.61.04,1.22-.02,1.84-.12.23-.04.79-.18,1.56-.4,1.35-.38,3.53-1.04,5.74-1.73.25-.08.51-.16.76-.24,3.12-.98,6.1-1.97,6.78-2.33,0,0,1.96,1.03,3.26,1.01l.31-.98Z"/>
    <path class="st13" d="M53.11,31.67s1.93,1.02,3.23,1.01l.3-.98c-1.26.02-3.52-1.03-3.52-1.03-.73.39-4.13,1.5-7.49,2.55s-6.68,2.02-7.24,2.13c-.6.11-1.21.17-1.81.14-1.65-.1-2.37-.96-2.89-2.28-.49.37-.45.83-.36,1.09.49,1.49,1.51,2.08,3.26,2.18.6.04,1.22-.02,1.81-.14.57-.11,3.89-1.08,7.24-2.13s6.76-2.16,7.49-2.55Z"/>
  </g>
  <g class="st27">
    <path class="st20" d="M38.54,42.26c.1.15.22.29.36.41.32.27.75.44,1.2.42,7.11-.2,13.97-.38,17.92.67h0c.41.28,2.99,1.44,5.17,2.39,2.03.89,4.22,1.34,6.43,1.34h2.61c2.21,0,4-1.79,4-4v-2.82c0,2.21-1.79,4-4,4h-2.61c-2.22,0-4.4-.46-6.43-1.34-2.17-.95-4.75-2.1-5.17-2.39h0c-3.29-.87-8.61-.91-14.41-.77-.9.11-1.74.26-2.48.5-.17.06-.34.12-.51.19-.8.33-1.53.78-1.99,1.3-.03.03-.06.07-.09.1Z"/>
    <path class="st23" d="M38.5,42.35c.08.17.19.34.33.49.31.33.78.54,1.28.53,7.11-.2,13.97-.38,17.92.67h0c.41.28,2.99,1.44,5.17,2.39,2.03.89,4.22,1.34,6.43,1.34h2.61c2.21,0,4-1.79,4-4v-2.64c0,2.21-1.79,4-4,4h-2.61c-2.22,0-4.4-.46-6.43-1.34-2.17-.95-4.75-2.1-5.17-2.39h0c-3.3-.87-8.63-.91-14.45-.77-.89.1-1.74.24-2.49.45-.17.05-.35.11-.52.17-.81.3-1.55.64-1.99,1.02-.03.02-.05.05-.08.08Z"/>
    <path class="st18" d="M38.46,42.44c.06.2.16.39.3.56.3.39.81.65,1.36.63,7.11-.2,13.97-.38,17.92.67h0c.41.28,2.99,1.44,5.17,2.39,2.03.89,4.22,1.34,6.43,1.34h2.61c2.21,0,4-1.79,4-4v-2.45c0,2.21-1.79,4-4,4h-2.61c-2.22,0-4.4-.46-6.43-1.34-2.17-.95-4.75-2.1-5.17-2.39h0c-3.3-.87-8.65-.92-14.48-.77-.89.1-1.74.22-2.5.41-.18.05-.35.1-.52.16-.82.27-1.57.51-1.99.75-.03.02-.05.03-.07.05Z"/>
    <path class="st15" d="M38.42,42.53c.05.22.13.43.26.64.3.45.84.75,1.43.73,7.11-.2,13.97-.38,17.92.67h0c.41.28,2.99,1.44,5.17,2.39,2.03.89,4.22,1.34,6.43,1.34h2.61c2.21,0,4-1.79,4-4v-2.27c0,2.21-1.79,4-4,4h-2.61c-2.22,0-4.4-.46-6.43-1.34-2.17-.95-4.75-2.1-5.17-2.39h0c-3.31-.87-8.68-.92-14.52-.77-.88.09-1.74.19-2.51.37-.18.04-.35.09-.53.14-.83.24-1.59.37-1.99.47-.03,0-.04.02-.07.02Z"/>
    <path class="st19" d="M38.38,42.63c.03.24.1.48.23.72.29.52.87.85,1.51.84,7.11-.2,13.97-.38,17.92.67h0c.41.28,2.99,1.44,5.17,2.39,2.03.89,4.22,1.34,6.43,1.34h2.61c2.21,0,4-1.79,4-4v-2.09c0,2.21-1.79,4-4,4h-2.61c-2.22,0-4.4-.46-6.43-1.34-2.17-.95-4.75-2.1-5.17-2.39h0c-3.32-.87-8.7-.92-14.55-.77-.88.08-1.74.17-2.52.33-.18.03-.36.08-.53.12-.84.21-1.61.24-1.98.2-.03,0-.04,0-.06,0Z"/>
    <path class="st2" d="M38.34,42.72c.01.26.07.53.19.79.28.58.9.96,1.59.94,7.11-.2,13.97-.38,17.92.67h0c.41.28,3,1.44,5.17,2.39,2.03.89,4.22,1.34,6.43,1.34h2.61c2.21,0,4-1.79,4-4v-1.91c0,2.21-1.79,4-4,4h-2.61c-2.22,0-4.4-.46-6.43-1.34-2.17-.95-4.75-2.1-5.17-2.39h0c-3.32-.88-8.72-.92-14.59-.76-.88.07-1.73.15-2.54.29-.18.03-.36.07-.54.1-.86.18-1.63.1-1.98-.08-.02-.01-.03-.02-.05-.03Z"/>
    <path class="st7" d="M38.3,42.81c0,.28.03.58.16.87.28.64.93,1.07,1.66,1.04,7.11-.2,13.97-.38,17.92.67h0c.41.28,2.99,1.44,5.17,2.39,2.03.89,4.22,1.34,6.43,1.34h2.61c2.21,0,4-1.79,4-4v-1.73c0,2.21-1.79,4-4,4h-2.61c-2.22,0-4.4-.46-6.43-1.34-2.17-.95-4.75-2.1-5.17-2.39h0c-3.33-.88-8.74-.92-14.62-.76-.87.06-1.73.13-2.55.24-.18.03-.36.06-.54.09-.87.15-1.65-.04-1.98-.36-.02-.02-.03-.04-.05-.06Z"/>
    <path class="st21" d="M38.26,42.91c-.03.31,0,.62.12.94.27.7.96,1.17,1.74,1.15,7.11-.2,13.97-.38,17.92.67h0c.41.28,2.99,1.44,5.17,2.39,2.03.89,4.22,1.34,6.43,1.34h2.61c2.21,0,4-1.79,4-4v-1.55c0,2.21-1.79,4-4,4h-2.61c-2.22,0-4.4-.46-6.43-1.34-2.17-.95-4.75-2.1-5.17-2.39h0c-3.34-.88-8.76-.92-14.66-.76-.87.05-1.73.11-2.56.2-.18.02-.36.05-.55.07-.88.12-1.67-.17-1.98-.63-.02-.03-.02-.06-.04-.09Z"/>
    <path class="st12" d="M38.22,43c-.04.33-.03.67.09,1.02.26.76.99,1.27,1.82,1.25,7.11-.2,13.97-.38,17.92.67h0c.41.28,2.99,1.44,5.17,2.39,2.03.89,4.22,1.34,6.43,1.34h2.61c2.21,0,4-1.79,4-4v-1.36c0,2.21-1.79,4-4,4h-2.61c-2.22,0-4.4-.46-6.43-1.34-2.17-.95-4.75-2.1-5.17-2.39h0c-3.34-.88-8.78-.92-14.69-.76-.86.04-1.73.09-2.57.16-.18.02-.37.03-.55.05-.89.09-1.69-.31-1.97-.91-.02-.04-.02-.07-.04-.11Z"/>
    <path class="st1" d="M38.18,43.09c-.06.35-.06.72.06,1.09.25.82,1.03,1.38,1.89,1.35,7.11-.2,13.97-.38,17.92.67h0c.41.28,2.99,1.44,5.17,2.39,2.03.89,4.22,1.34,6.43,1.34h2.61c2.21,0,4-1.79,4-4v-1.18c0,2.21-1.79,4-4,4h-2.61c-2.22,0-4.4-.46-6.43-1.34-2.17-.95-4.75-2.1-5.17-2.39h0c-3.35-.88-8.8-.92-14.73-.76-.86.03-1.73.07-2.58.12-.19.01-.37.02-.56.04-.9.06-1.7-.44-1.97-1.18-.02-.05-.02-.1-.03-.14Z"/>
    <path class="st31" d="M72.25,49.21h-2.61c-2.22,0-4.4-.46-6.43-1.34-2.17-.95-4.75-2.1-5.17-2.39h0c-3.94-1.04-10.81-.9-17.92-.66-.91.02-1.72-.58-1.97-1.46-.02-.06-.01-.11-.02-.17-.08.38-.09.76.02,1.17.25.88,1.06,1.48,1.97,1.46,7.11-.24,13.97-.38,17.92.67h0c.41.28,3,1.44,5.17,2.39,2.03.89,4.22,1.34,6.43,1.34h2.61c2.21,0,4-1.79,4-4v-1c0,2.21-1.79,4-4,4Z"/>
  </g>
  <g class="st26">
    <path class="st20" d="M57.05,23.63l-23.09,9.44c-.42.17-.75.69-.61,1.12.11.49.3.9.6,1.23.05.06.1.11.16.16.14.1.3.18.48.26.27.14.67.21,1.02.28l21.45-8.77c2.39-.98,5.25-.54,6.97,1.38,2.6,2.89,7.93,8.89,11.01,11.75.79.74,1.21,1.79,1.21,2.87v-1.13c0-.08-.02-2.75-.07-2.81-.01-.27-.05-.54-.12-.8-.19-.74-.58-1.44-1.16-1.99-3.08-2.88-8.32-8.76-10.88-11.61-1.72-1.92-4.58-2.36-6.97-1.38Z"/>
    <path class="st23" d="M57.05,23.63l-22.98,9.4c-.38.16-.8.67-.67,1.06.05.46.2.88.48,1.23.05.06.1.11.15.17.14.07.29.13.47.19.24.13.7.15,1.01.21l21.52-8.8c2.39-.98,5.24-.54,6.97,1.38,2.6,2.89,7.93,8.89,11.02,11.74.79.73,1.21,1.79,1.21,2.87v-1.12c0-.15-.05-2.64-.13-2.76-.03-.26-.08-.52-.15-.77-.21-.71-.61-1.39-1.19-1.93-3.08-2.9-8.22-8.67-10.75-11.48-1.72-1.92-4.58-2.36-6.97-1.38Z"/>
    <path class="st18" d="M57.05,23.63l-22.87,9.35c-.34.14-.84.65-.73,1,0,.43.1.86.37,1.22.05.06.1.12.14.17.13.04.29.08.47.12.22.11.73.09,1.01.14l21.6-8.83c2.39-.98,5.24-.54,6.97,1.38,2.6,2.89,7.93,8.89,11.02,11.75.79.74,1.21,1.79,1.21,2.87v-1.1c0-.23-.07-2.53-.2-2.71-.04-.25-.1-.5-.19-.75-.24-.68-.65-1.33-1.22-1.88-3.09-2.93-8.12-8.58-10.61-11.36-1.72-1.92-4.58-2.36-6.97-1.38Z"/>
    <path class="st15" d="M57.05,23.63l-22.76,9.31c-.3.12-.89.63-.79.93-.06.4,0,.84.25,1.22.04.06.09.12.14.18.13.01.28.03.47.06.19.1.77.02,1.01.07l21.67-8.86c2.39-.98,5.24-.54,6.97,1.38,2.6,2.89,7.93,8.89,11.02,11.75.79.74,1.21,1.79,1.21,2.87v-1.09c0-.31-.09-2.42-.27-2.67-.05-.25-.13-.49-.22-.72-.27-.64-.69-1.28-1.25-1.82-3.09-2.95-8.02-8.48-10.48-11.23-1.72-1.92-4.58-2.36-6.97-1.38Z"/>
    <path class="st19" d="M57.05,23.63l-22.64,9.26c-.25.1-.94.61-.85.87-.12.37-.1.83.14,1.21.04.07.09.13.13.19.13-.01.28-.02.47,0,.16.09.8-.04,1.01,0l21.75-8.89c2.39-.98,5.24-.54,6.97,1.38,2.6,2.89,7.93,8.89,11.02,11.75.79.73,1.21,1.79,1.21,2.87v-1.08c0-.38-.12-2.31-.33-2.62-.06-.24-.15-.47-.26-.69-.3-.61-.72-1.23-1.28-1.76-3.09-2.97-7.92-8.39-10.35-11.1-1.72-1.92-4.58-2.36-6.97-1.38Z"/>
    <path class="st2" d="M57.05,23.63l-22.53,9.22c-.21.09-.98.59-.91.81-.18.34-.2.81.03,1.21.04.07.08.13.12.19.12-.04.28-.07.47-.08.14.07.83-.1,1-.06l21.83-8.93c2.39-.98,5.24-.54,6.97,1.38,2.6,2.89,7.93,8.89,11.02,11.75.79.73,1.21,1.79,1.21,2.87v-1.07c0-.46-.14-2.2-.4-2.57-.08-.23-.18-.45-.3-.67-.32-.58-.76-1.17-1.32-1.71-3.09-3-7.82-8.3-10.21-10.97-1.73-1.92-4.58-2.36-6.97-1.38Z"/>
    <path class="st7" d="M57.05,23.63l-22.42,9.17c-.17.07-1.03.57-.97.75-.23.31-.3.79-.09,1.2.04.07.08.13.12.2.12-.07.27-.12.46-.14.11.06.86-.16,1-.13l21.9-8.96c2.39-.98,5.25-.54,6.97,1.38,2.6,2.89,7.93,8.89,11.01,11.75.79.73,1.21,1.79,1.21,2.87v-1.05c0-.53-.16-2.1-.47-2.52-.09-.22-.2-.44-.33-.64-.35-.54-.8-1.12-1.35-1.65-3.1-3.02-7.72-8.21-10.08-10.84-1.72-1.92-4.58-2.36-6.97-1.38Z"/>
    <path class="st21" d="M57.05,23.63l-22.31,9.12c-.13.05-1.08.56-1.03.68-.29.28-.4.77-.2,1.2.03.07.07.14.11.21.11-.09.27-.17.46-.21.08.04.9-.22,1-.2l21.98-8.99c2.39-.98,5.24-.54,6.97,1.38,2.6,2.89,7.93,8.89,11.02,11.74.79.74,1.21,1.79,1.21,2.87v-1.04c0-.61-.18-1.99-.54-2.47-.1-.22-.23-.42-.37-.61-.37-.51-.83-1.06-1.38-1.59-3.1-3.04-7.62-8.12-9.94-10.71-1.72-1.92-4.58-2.36-6.97-1.38Z"/>
    <path class="st12" d="M57.05,23.63l-22.2,9.08c-.09.03-1.12.54-1.1.62-.35.25-.5.75-.32,1.19.03.08.07.14.11.21.11-.12.26-.23.46-.28.05.03.93-.28,1-.27l22.05-9.02c2.39-.98,5.24-.54,6.97,1.38,2.6,2.89,7.93,8.89,11.02,11.75.79.73,1.21,1.79,1.21,2.87v-1.03c0-.69-.21-1.88-.6-2.43-.11-.21-.25-.41-.4-.59-.4-.48-.87-1.01-1.41-1.54-3.1-3.06-7.52-8.03-9.81-10.58-1.72-1.92-4.58-2.36-6.97-1.38Z"/>
    <path class="st1" d="M57.05,23.63l-22.09,9.03s-1.17.52-1.16.56c-.41.22-.6.73-.43,1.19.03.08.07.15.1.22.11-.15.26-.28.46-.34.03.01.96-.34,1-.34l22.13-9.05c2.39-.98,5.25-.54,6.97,1.38,2.6,2.89,7.93,8.89,11.01,11.74.79.73,1.21,1.79,1.21,2.87v-1.01c0-.76-.23-1.77-.67-2.38-.13-.2-.27-.39-.44-.56-.42-.45-.91-.95-1.44-1.48-3.1-3.09-7.42-7.94-9.68-10.45-1.72-1.92-4.58-2.36-6.97-1.38Z"/>
    <path class="st31" d="M75.04,36.75c-3.08-2.86-8.42-8.85-11.01-11.74-1.72-1.92-4.58-2.36-6.97-1.38l-23.2,9.49c-.47.19-.7.71-.55,1.18.03.08.06.15.09.23.1-.18.25-.33.45-.41l23.2-9.49c2.39-.98,5.24-.54,6.97,1.38,2.6,2.89,7.93,8.89,11.02,11.75.79.73,1.21,1.79,1.21,2.87v-1c0-1.08-.42-2.13-1.21-2.87Z"/>
  </g>
</svg>