<svg xmlns="http://www.w3.org/2000/svg"  viewBox="0 0 48 48" width="48px" height="48px"><path fill="#af7d5b" d="M23.06,14.047l3.956-2.496c1.156-0.729,0.484-2.52-0.867-2.308l-5.89,0.925	c-2.334,0.366-3.844,2.665-3.253,4.952l2.039,5.978c0.392,1.149,1.36,2.006,2.548,2.255l6.217,1.305l0.116-1.587	c0-1.573-1.563-3.615-3.643-3.92h-0.028L23.06,14.047z"/><path fill="#c68d65" d="M20.272,14.707l6.523-4.115c0.581-0.366,0.243-1.265-0.435-1.159l-8.889,1.395	c-2.334,0.366-3.844,2.665-3.253,4.952l2.039,5.978c0.392,1.149,1.36,2.006,2.548,2.255l6.217,1.305l0.116-1.587	c0-1.573-1.563-3.615-3.643-3.92h-0.028L20.272,14.707z"/><radialGradient id="LfOGrSmw14~P91mHne3Tta" cx="13.397" cy="21.912" r="12.785" gradientTransform="matrix(-.9226 .3866 -.3981 -.9545 34.48 37.599)" gradientUnits="userSpaceOnUse"><stop offset="0" stop-color="#f9e5c8"/><stop offset="0" stop-color="#daae88"/><stop offset=".325" stop-color="#d7a983"/><stop offset=".73" stop-color="#ce9a73"/><stop offset=".999" stop-color="#c68d65"/></radialGradient><path fill="url(#LfOGrSmw14~P91mHne3Tta)" d="M17.213,15.123l9.748-6.165l-12.745,2.005c-2.497,0.393-4.112,2.858-3.48,5.31l2.181,6.41	c0.419,1.232,1.455,2.151,2.726,2.419l6.651,1.4l0.125-1.701c0-1.687-1.672-3.877-3.897-4.204h-0.03L17.213,15.123z"/><radialGradient id="LfOGrSmw14~P91mHne3Ttb" cx="13.258" cy="9.5" r="14.144" gradientTransform="matrix(-.9934 .115 -.0559 -.4846 26.96 12.499)" gradientUnits="userSpaceOnUse"><stop offset="0" stop-color="#e3c7a1"/><stop offset=".999" stop-color="#c68d65"/></radialGradient><path fill="url(#LfOGrSmw14~P91mHne3Ttb)" d="M17.213,15.123l9.748-6.165l-12.745,2.005c-2.497,0.393-4.112,2.858-3.48,5.31L17.213,15.123z"/><radialGradient id="LfOGrSmw14~P91mHne3Ttc" cx="21.293" cy="20.883" r="23.485" gradientTransform="matrix(.9994 .0336 -.0274 .8136 .583 3.177)" gradientUnits="userSpaceOnUse"><stop offset="0" stop-color="#e3c7a1"/><stop offset=".629" stop-color="#daae88"/><stop offset=".75" stop-color="#d7a983"/><stop offset=".899" stop-color="#ce9a73"/><stop offset=".999" stop-color="#c68d65"/></radialGradient><path fill="url(#LfOGrSmw14~P91mHne3Ttc)" d="M42.788,22.588c-3.081-2.858-8.418-8.85-11.015-11.745c-1.724-1.922-4.579-2.358-6.969-1.381L1.606,18.948c-0.465,0.19-0.703,0.708-0.546,1.185c0.493,1.493,1.514,2.081,3.258,2.183c0.604,0.036,1.217-0.025,1.811-0.138c1.133-0.215,13.276-3.905,14.733-4.678c0,0,1.968,1.027,3.227,1.007l-1.033,3.399c-0.346,1.138-1.208,2.053-2.333,2.44c-3.289,1.129-8.648,0.643-11.797,1.74c-1.807,0.64-3.534,2.255-3.018,4.102c0.246,0.88,1.057,1.48,1.97,1.458c7.11-0.238,13.972-0.375,17.916,0.667l0-0.002c0.413,0.287,2.995,1.439,5.166,2.388c2.029,0.887,4.219,1.343,6.434,1.343c0.652,0,1.955,0,2.607,0c2.209,0,4-1.791,4-4v-6.585C44,24.375,43.58,23.323,42.788,22.588z"/><g opacity=".7"><path fill="#c68d65" d="M20.862,17.5c0,0,1.934,1.022,3.227,1.007l0.297-0.978c-1.259,0.02-3.524-1.029-3.524-1.029c-0.728,0.387-4.128,1.502-7.488,2.548s-6.678,2.022-7.245,2.13c-0.595,0.113-1.207,0.174-1.811,0.138c-1.649-0.097-2.374-0.958-2.895-2.277c-0.489,0.374-0.452,0.825-0.363,1.094c0.493,1.493,1.514,2.081,3.258,2.183c0.604,0.036,1.217-0.025,1.811-0.138c0.566-0.107,3.885-1.084,7.245-2.13S20.133,17.887,20.862,17.5z"/></g><g opacity=".3"><path fill="#c68d65" d="M40,35.041c-0.652,0-1.955,0-2.607,0c-2.215,0-4.404-0.456-6.434-1.343c-2.171-0.949-4.753-2.101-5.166-2.388l0,0.002c-3.944-1.042-10.805-0.905-17.916-0.667c-0.913,0.022-1.724-0.579-1.97-1.458c-0.016-0.058-0.011-0.112-0.023-0.17c-0.08,0.375-0.09,0.765,0.023,1.17c0.246,0.88,1.057,1.48,1.97,1.458c7.11-0.238,13.972-0.375,17.916,0.667l0-0.002c0.413,0.287,2.995,1.439,5.166,2.388c2.029,0.887,4.219,1.343,6.434,1.343c0.652,0,1.955,0,2.607,0c2.209,0,4-1.791,4-4v-1C44,33.25,42.209,35.041,40,35.041z"/></g></svg>
